<?xml version="1.0"?>
<svg xmlns="http://www.w3.org/2000/svg" height="512px" viewBox="0 0 448 448" width="512px"><path d="m104 240h240v16h-240zm0 0" fill="#FFFFFF"/><path d="m144 272h160v80h-160zm0 0" fill="#FFFFFF"/><path d="m144 368h160v80h-160zm0 0" fill="#FFFFFF"/><path d="m0 448h128v-176h-128zm96-112h16v48h-16zm0 0" fill="#FFFFFF"/><path d="m448 272h-128v176h128zm-96 112h-16v-48h16zm0 0" fill="#FFFFFF"/><path d="m416 216v-208c0-4.417969-3.582031-8-8-8h-368c-4.417969 0-8 3.582031-8 8v208c0 4.417969 3.582031 8 8 8h368c4.417969 0 8-3.582031 8-8zm-376-208h368v208h-368zm0 0" fill="#FFFFFF"/><path d="m56 24h336v176h-336zm0 0" fill="#FFFFFF"/></svg>
