<?xml version="1.0"?>
<svg xmlns="http://www.w3.org/2000/svg" height="512px" viewBox="0 0 480 480" width="512px"><path d="m472 479.734375c4.417969 0 8-3.582031 8-8v-96c0-4.421875-3.582031-8-8-8h-8.800781c-3.785157-18.644531-20.175781-32.042969-39.199219-32.042969s-35.414062 13.398438-39.199219 32.042969h-.800781v-24c0-4.421875-3.582031-8-8-8l14.398438-19.203125c1.820312-2.421875 2.113281-5.667969.757812-8.375-1.355469-2.710938-4.125-4.421875-7.15625-4.421875h-22.175781l-41.191407-61.785156c8.625-1.972657 17.195313-4.269531 25.71875-6.886719 2.375-.734375 4.273438-2.523438 5.140626-4.851562.867187-2.324219.605468-4.921876-.707032-7.03125l-52.066406-83.304688c5.3125-1.351562 10.601562-2.8125 15.808594-4.550781 2.304687-.765625 4.132812-2.539063 4.976562-4.816407.839844-2.277343.601563-4.8125-.648437-6.894531l-72-120c-1.550781-2.261719-4.113281-3.613281-6.855469-3.613281s-5.304688 1.351562-6.855469 3.613281l-72 120c-1.25 2.082031-1.488281 4.617188-.648437 6.894531.84375 2.277344 2.671875 4.050782 4.976562 4.816407 5.207032 1.738281 10.496094 3.199219 15.800782 4.550781l-52.058594 83.304688c-1.3125 2.109374-1.574219 4.707031-.707032 7.03125.867188 2.328124 2.765626 4.117187 5.140626 4.851562 8.53125 2.621094 17.105468 4.917969 25.710937 6.886719l-46.015625 69.03125c-1.832031 2.628906-1.832031 6.125 0 8.753906h-15.902344l6.445313-38.683594c.390625-2.316406-.261719-4.691406-1.78125-6.488281-1.519531-1.792969-3.753907-2.828125-6.105469-2.828125h-48c-2.351562 0-4.585938 1.035156-6.105469 2.828125-1.519531 1.796875-2.171875 4.171875-1.78125 6.488281l6.445313 38.683594h-38.558594c-4.417969 0-8 3.578125-8 8v144c0 4.417969 3.582031 8 8 8zm-456-112h48v96h-48zm64 96v-96h48v96zm48-128v16h-48v-16zm80 18.710937v29.289063h-64v-47.082031c20.421875 8.824218 41.953125 14.8125 64 17.792968zm64-34.710937h20l12 16h-20zm192 64v16h-32v-16zm-48 16h-32v-16h32zm-32 16h32v48h-32zm-16-48h-40v-16h40zm-56-16v16h-40v-16zm-56 32h-32v-27.65625c5.449219.367187 10.910156.554687 16.382812.558594 5.210938 0 10.402344-.238281 15.617188-.574219zm-112 16h48v16h-48zm0 32h48v32h-48zm64 0h48v32h-48zm0-16v-16h48v16zm64 48v-80h40v80zm56 0v-80h40v80zm104 0v-48h32v48zm-8-112c10.132812.039063 19.148438 6.445313 22.527344 16h-45.054688c3.378906-9.554687 12.394532-15.960937 22.527344-16zm-68-16h-20l12-16h20zm-116-312.449219 59.886719 99.808594c-39.167969 11-80.605469 11-119.773438 0zm-42.089844 120.167969c13.886719 2.542969 27.972656 3.84375 42.089844 3.886719 14.117188-.042969 28.203125-1.34375 42.089844-3.886719l49.527344 79.238281c-59.945313 16.554688-123.257813 16.554688-183.203126 0zm-21.597656 101.925781c21.015625 3.800782 42.328125 5.71875 63.6875 5.738282 21.359375-.015626 42.675781-1.933594 63.695312-5.738282l39.089844 58.640625c-2.042968.253907-3.90625 1.300781-5.183594 2.914063l-17.601562 23.464844-17.601562-23.464844c-1.507813-2.015625-3.878907-3.199219-6.398438-3.199219h-40c-3.03125 0-5.800781 1.710937-7.15625 4.421875-1.355469 2.707031-1.0625 5.953125.757812 8.375l14.398438 19.203125c-2.863281.027344-5.488281 1.601563-6.855469 4.117187-43.652343 3.289063-87.324219-6.125-125.746093-27.109374zm-118.863281 42.355469h29.101562l-5.328125 32h-18.445312zm6.550781 48v16h-48v-16zm0 0" fill="#FFFFFF"/><path d="m96 151.734375c0 13.253906 10.746094 24 24 24s24-10.746094 24-24c0-13.257813-10.746094-24-24-24s-24 10.742187-24 24zm32 0c0 4.417969-3.582031 8-8 8s-8-3.582031-8-8c0-4.421875 3.582031-8 8-8s8 3.578125 8 8zm0 0" fill="#FFFFFF"/><path d="m424 271.734375c13.253906 0 24-10.746094 24-24 0-13.257813-10.746094-24-24-24s-24 10.742187-24 24c0 13.253906 10.746094 24 24 24zm0-32c4.417969 0 8 3.578125 8 8 0 4.417969-3.582031 8-8 8s-8-3.582031-8-8c0-4.421875 3.582031-8 8-8zm0 0" fill="#FFFFFF"/><path d="m376 55.734375c0 13.253906 10.746094 24 24 24s24-10.746094 24-24c0-13.257813-10.746094-24-24-24s-24 10.742187-24 24zm32 0c0 4.417969-3.582031 8-8 8s-8-3.582031-8-8c0-4.421875 3.582031-8 8-8s8 3.578125 8 8zm0 0" fill="#FFFFFF"/><path d="m40 231.734375c13.253906 0 24-10.746094 24-24 0-13.257813-10.746094-24-24-24s-24 10.742187-24 24c0 13.253906 10.746094 24 24 24zm0-32c4.417969 0 8 3.578125 8 8 0 4.417969-3.582031 8-8 8s-8-3.582031-8-8c0-4.421875 3.582031-8 8-8zm0 0" fill="#FFFFFF"/><path d="m376 191.734375c13.253906 0 24-10.746094 24-24 0-13.257813-10.746094-24-24-24s-24 10.742187-24 24c0 13.253906 10.746094 24 24 24zm0-32c4.417969 0 8 3.578125 8 8 0 4.417969-3.582031 8-8 8s-8-3.582031-8-8c0-4.421875 3.582031-8 8-8zm0 0" fill="#FFFFFF"/><path d="m176 47.734375c0-13.257813-10.746094-24-24-24s-24 10.742187-24 24c0 13.253906 10.746094 24 24 24s24-10.746094 24-24zm-32 0c0-4.421875 3.582031-8 8-8s8 3.578125 8 8c0 4.417969-3.582031 8-8 8s-8-3.582031-8-8zm0 0" fill="#FFFFFF"/><path d="m172.425781 302.890625 7.152344-14.3125 16 8-7.15625 14.3125zm0 0" fill="#FFFFFF"/><path d="m260.417969 272.578125 16-8 7.15625 14.308594-16 8zm0 0" fill="#FFFFFF"/><path d="m200.84375 267.308594 14.3125-7.15625 7.996094 16-14.308594 7.15625zm0 0" fill="#FFFFFF"/><path d="m216 303.734375h16v16h-16zm0 0" fill="#FFFFFF"/><path d="m250.347656 173.390625 11.3125-11.316406 15.996094 16-11.3125 11.3125zm0 0" fill="#FFFFFF"/><path d="m200 167.734375h16v16h-16zm0 0" fill="#FFFFFF"/><path d="m210.347656 210.074219 15.996094-16 11.3125 11.316406-15.996094 15.996094zm0 0" fill="#FFFFFF"/><path d="m210.34375 106.078125 15.996094-15.996094 11.3125 11.3125-15.996094 15.996094zm0 0" fill="#FFFFFF"/><path d="m228.421875 78.890625 7.152344-14.3125 16 8-7.15625 14.3125zm0 0" fill="#FFFFFF"/><path d="m258.34375 210.074219 15.996094-15.996094 11.316406 11.3125-16 16zm0 0" fill="#FFFFFF"/></svg>
