<?xml version="1.0"?>
<svg xmlns="http://www.w3.org/2000/svg" height="512px" viewBox="0 0 448.00001 448" width="512px"><path d="m390.777344 128h54.976562l-20-80h-48.304687zm0 0" fill="#FFFFFF"/><path d="m344 176c8.5.046875 16.667969-3.308594 22.679688-9.320312 6.011718-6.011719 9.367187-14.179688 9.320312-22.679688h-64c0 4.421875.898438 8.800781 2.640625 12.863281 5.15625 11.609375 16.65625 19.105469 29.359375 19.136719zm0 0" fill="#FFFFFF"/><path d="m304.695312 48 6.664063 80h63.191406l-13.328125-80zm0 0" fill="#FFFFFF"/><path d="m234.640625 156.863281c5.140625 11.648438 16.683594 19.15625 29.417969 19.132813 12.730468-.023438 24.246094-7.570313 29.347656-19.234375 1.714844-4.039063 2.597656-8.378907 2.59375-12.761719h-64c0 4.421875.898438 8.800781 2.640625 12.863281zm0 0" fill="#FFFFFF"/><path d="m355.304688 347.304688c4.566406-4.578126 5.933593-11.453126 3.460937-17.425782-2.476563-5.972656-8.300781-9.871094-14.765625-9.878906v16c-.007812 2.5625-.164062 5.121094-.472656 7.664062-.101563.800782-.289063 1.601563-.414063 2.457032-.273437 1.695312-.5625 3.382812-.96875 5.039062-.066406.28125-.089843.566406-.160156.800782h2.015625c4.238281.015624 8.308594-1.660157 11.304688-4.65625zm0 0" fill="#FFFFFF"/><path d="m48 32h352v-8c0-13.253906-10.746094-24-24-24h-304c-13.253906 0-24 10.746094-24 24zm0 0" fill="#FFFFFF"/><path d="m328 312v-8h-96v32c.027344 26.5 21.5 47.972656 48 48 18.5625.113281 35.484375-10.601562 43.328125-27.425781 3.101563-6.410157 4.699219-13.449219 4.671875-20.574219zm0 0" fill="#FFFFFF"/><path d="m416 448v-256.175781c-.640625-.0625-1.265625-.199219-1.894531-.289063-.632813-.085937-1.195313-.160156-1.792969-.261718-1.757812-.308594-3.496094-.726563-5.199219-1.25-.25-.070313-.503906-.121094-.746093-.199219-1.917969-.625-3.789063-1.386719-5.597657-2.28125-.488281-.238281-.953125-.503907-1.425781-.800781-1.34375-.710938-2.648438-1.492188-3.910156-2.34375-.488282-.328126-.96875-.644532-1.441406-.992188-1.546876-1.117188-3.019532-2.335938-4.40625-3.644531-.074219-.074219-.144532-.121094-.21875-.1875-1.429688-1.402344-2.765626-2.898438-4-4.476563-.367188-.464844-.695313-.960937-1.046876-1.441406-.433593-.601562-.90625-1.167969-1.304687-1.792969-.511719.710938-1.09375 1.34375-1.648437 2.023438-.4375.554687-.871094 1.113281-1.34375 1.648437-1.128907 1.28125-2.328126 2.5-3.589844 3.648438-.3125.289062-.601563.609375-.921875.886718-1.59375 1.394532-3.28125 2.679688-5.046875 3.851563-.464844.300781-.953125.550781-1.425782.847656-1.328124.796875-2.6875 1.597657-4.09375 2.277344-.671874.328125-1.359374.617187-2.050781.914063-1.285156.550781-2.582031 1.054687-3.917969 1.503906-.738281.238281-1.464843.472656-2.214843.679687-1.410157.398438-2.851563.703125-4.304688.96875-.671875.117188-1.328125.269531-2.007812.367188-4.328125.644531-8.730469.644531-13.058594 0-.695313-.097657-1.367187-.265625-2.0625-.390625-1.457031-.265625-2.894531-.570313-4.3125-.960938-.800781-.226562-1.527344-.488281-2.289063-.746094-1.292968-.429687-2.574218-.910156-3.824218-1.453124-.75-.328126-1.496094-.671876-2.230469-1.035157-1.222656-.613281-2.398437-1.285156-3.59375-2-.664063-.40625-1.335937-.796875-1.980469-1.230469-1.265625-.855468-2.464844-1.792968-3.640625-2.761718-.480469-.398438-.984375-.75-1.449219-1.167969-1.613281-1.425781-3.128906-2.960937-4.535156-4.589844-.191406-.222656-.351562-.480469-.535156-.703125-1.0625-1.253906-2.058594-2.5625-2.984375-3.921875-.882813 1.3125-1.863281 2.535157-2.855469 3.753907-.226562.269531-.417968.574218-.648437.847656-1.414063 1.628906-2.929688 3.167968-4.539063 4.605468-.453125.402344-.949218.746094-1.421875 1.136719-1.183593.976563-2.398437 1.929688-3.664062 2.792969-.65625.441406-1.335938.800781-2.007813 1.238281-1.160156.714844-2.34375 1.386719-3.570312 1.992188-.742188.371093-1.492188.714843-2.253906 1.042969-1.238282.542968-2.503907 1.015624-3.785157 1.453124-.800781.257813-1.535156.519532-2.328125.746094-1.398437.398438-2.839844.695313-4.285156.960938-.691406.125-1.371094.292968-2.074219.390625-4.351562.648437-8.777343.648437-13.128906 0-.695313-.097657-1.367187-.265625-2.0625-.390625-1.457031-.265625-2.894531-.570313-4.3125-.960938-.800781-.226562-1.527344-.488281-2.289063-.746094-1.292968-.429687-2.574218-.910156-3.824218-1.453124-.75-.328126-1.496094-.671876-2.230469-1.035157-1.222656-.613281-2.398437-1.285156-3.59375-2-.664063-.40625-1.335937-.796875-1.980469-1.230469-1.265625-.855468-2.464844-1.792968-3.640625-2.761718-.480469-.398438-.984375-.75-1.449219-1.167969-1.613281-1.425781-3.128906-2.960937-4.535156-4.589844-.191406-.222656-.351562-.480469-.535156-.703125-1.0625-1.253906-2.058594-2.5625-2.984375-3.921875-.882813 1.3125-1.863281 2.535157-2.855469 3.753907-.226562.269531-.417968.574218-.648437.847656-1.414063 1.628906-2.929688 3.167968-4.539063 4.605468-.453125.402344-.949218.746094-1.421875 1.136719-1.183593.976563-2.398437 1.929688-3.664062 2.792969-.65625.441406-1.335938.800781-2.007813 1.238281-1.160156.714844-2.34375 1.386719-3.570312 1.992188-.742188.371093-1.492188.714843-2.253906 1.042969-1.238282.542968-2.503907 1.015624-3.785157 1.453124-.800781.257813-1.535156.519532-2.328125.746094-1.398437.398438-2.839844.695313-4.285156.960938-.691406.125-1.371094.292968-2.074219.390625-4.351562.648437-8.777343.648437-13.128906 0-.695313-.097657-1.367187-.265625-2.0625-.390625-1.457031-.265625-2.894531-.570313-4.3125-.960938-.800781-.226562-1.527344-.488281-2.289063-.746094-1.292968-.429687-2.574218-.910156-3.824218-1.453124-.75-.328126-1.496094-.671876-2.230469-1.035157-1.222656-.613281-2.398437-1.285156-3.59375-2-.664063-.40625-1.335937-.796875-1.980469-1.230469-1.265625-.855468-2.464844-1.792968-3.640625-2.761718-.480469-.398438-.984375-.75-1.449219-1.167969-1.613281-1.425781-3.128906-2.960937-4.535156-4.589844-.191406-.222656-.351562-.480469-.535156-.703125-1.0625-1.253906-2.058594-2.5625-2.984375-3.921875-.882813 1.3125-1.863281 2.535157-2.855469 3.753907-.226562.269531-.417968.574218-.648437.847656-1.414063 1.628906-2.929688 3.167968-4.539063 4.605468-.453125.402344-.949218.746094-1.421875 1.136719-1.183593.976563-2.398437 1.929688-3.664062 2.792969-.65625.441406-1.335938.800781-2.007813 1.238281-1.160156.714844-2.34375 1.386719-3.570312 1.992188-.742188.371093-1.492188.714843-2.253906 1.042969-1.238282.542968-2.503907 1.015624-3.785157 1.453124-.800781.257813-1.535156.519532-2.328125.746094-1.398437.398438-2.839844.695313-4.285156.960938-.691406.125-1.371094.292968-2.074219.390625-4.324219.644531-8.722656.644531-13.046875 0-.679687-.097657-1.34375-.25-2.015625-.367188-1.457031-.265625-2.890625-.570312-4.304687-.96875-.746094-.207031-1.472656-.441406-2.207032-.679687-1.335937-.449219-2.640624-.945313-3.929687-1.503906-.679687-.296876-1.367187-.578126-2.039063-.90625-1.402343-.6875-2.753906-1.453126-4.082031-2.269532-.480469-.296875-.972656-.554687-1.445312-.855468-1.761719-1.167969-3.445313-2.449219-5.042969-3.832032-.308594-.273437-.582031-.578125-.878906-.859375-1.273438-1.152343-2.484375-2.378906-3.625-3.671875-.46875-.527344-.894532-1.085937-1.34375-1.644531-.550782-.683594-1.144532-1.320313-1.65625-2.035156-.40625.632812-.886719 1.21875-1.328125 1.824219-.34375.472656-.664063.953124-1.023438 1.410156-1.230469 1.574218-2.566406 3.066406-4 4.464844-.070312.078124-.167969.140624-.238281.214843-1.382812 1.296875-2.84375 2.503907-4.375 3.613281-.472656.347657-.960938.664063-1.449219.992188-1.257812.847656-2.558593 1.628906-3.894531 2.335938-.480469.257812-.945312.53125-1.433594.800781-1.8125.890625-3.683594 1.652343-5.601562 2.28125-.253906.078125-.511719.128906-.796875.207031-1.703125.519531-3.433594.933594-5.1875 1.242188-.589844.101562-1.191407.183593-1.789063.261718-.601562.082032-1.257812.226563-1.898437.289063v256.175781h16v-200c0-4.417969 3.582031-8 8-8h112.113281c4.417969 0 8 3.582031 8 8v200zm-108.800781-206.398438c8.175781-6.128906 12.800781-9.976562 12.800781-17.601562 0-4.417969 3.582031-8 8-8s8 3.582031 8 8c0 16-10.648438 24-19.199219 30.398438-8.175781 6.128906-12.800781 9.976562-12.800781 17.601562 0 4.417969-3.582031 8-8 8s-8-3.582031-8-8c0-16 10.648438-24 19.199219-30.398438zm-40 0c8.175781-6.128906 12.800781-9.976562 12.800781-17.601562 0-4.417969 3.582031-8 8-8s8 3.582031 8 8c0 16-10.648438 24-19.199219 30.398438-8.175781 6.128906-12.800781 9.976562-12.800781 17.601562 0 4.417969-3.582031 8-8 8s-8-3.582031-8-8c0-16 10.648438-24 19.199219-30.398438zm-51.199219 158.398438h64c-35.328125-.039062-63.960938-28.671875-64-64v-40c0-4.417969 3.582031-8 8-8h112c4.417969 0 8 3.582031 8 8v8c17.671875 0 32 14.328125 32 32s-14.328125 32-32 32h-8.800781c-11.269531 19.851562-32.371094 32.085938-55.199219 32h64c4.417969 0 8 3.582031 8 8s-3.582031 8-8 8h-128c-4.417969 0-8-3.582031-8-8s3.582031-8 8-8zm0 0" fill="#FFFFFF"/><path d="m74.640625 156.863281c5.140625 11.648438 16.683594 19.15625 29.417969 19.132813 12.730468-.023438 24.246094-7.570313 29.347656-19.234375 1.714844-4.039063 2.597656-8.378907 2.59375-12.761719h-64c0 4.421875.898438 8.800781 2.640625 12.863281zm0 0" fill="#FFFFFF"/><path d="m64 256h96v192h-96zm0 0" fill="#FFFFFF"/><path d="m0 148c-.0117188 14.257812 10.707031 26.242188 24.878906 27.808594 1.035156.128906 2.078125.191406 3.121094.191406 11.867188.03125 22.453125-7.441406 26.398438-18.632812 1.078124-3.003907 1.621093-6.175782 1.601562-9.367188v-4h-56zm0 0" fill="#FFFFFF"/><path d="m2.246094 128h54.976562l13.328125-80h-48.304687zm0 0" fill="#FFFFFF"/><path d="m232 48v80h63.304688l-6.664063-80zm0 0" fill="#FFFFFF"/><path d="m422.984375 175.824219c14.222656-1.523438 25.007813-13.523438 25.015625-27.824219v-4h-56v4c-.011719 3.164062.53125 6.304688 1.601562 9.28125 3.921876 11.21875 14.511719 18.726562 26.398438 18.71875.996094.003906 1.992188-.054688 2.984375-.175781zm0 0" fill="#FFFFFF"/><path d="m143.304688 48h-56.527344l-13.328125 80h63.191406zm0 0" fill="#FFFFFF"/><path d="m216 48h-56.640625l-6.664063 80h63.304688zm0 0" fill="#FFFFFF"/><path d="m154.640625 156.863281c5.140625 11.648438 16.683594 19.15625 29.417969 19.132813 12.730468-.023438 24.246094-7.570313 29.347656-19.234375 1.714844-4.039063 2.597656-8.378907 2.59375-12.761719h-64c0 4.421875.898438 8.800781 2.640625 12.863281zm0 0" fill="#FFFFFF"/></svg>
